<?xml version="1.0" encoding="iso-8859-1"?>
<!-- Generator: Adobe Illustrator 19.0.0, SVG Export Plug-In . SVG Version: 6.00 Build 0)  -->
<svg version="1.1" id="Capa_1" xmlns="http://www.w3.org/2000/svg" xmlns:xlink="http://www.w3.org/1999/xlink" x="0px" y="0px"
	 viewBox="0 0 512 512" style="enable-background:new 0 0 512 512;" xml:space="preserve">
<circle style="fill:#00DD7B;" cx="256" cy="256" r="256"/>
<path style="fill:#00AB5E;" d="M300.188,508.188C420.513,487.25,512,382.314,512,256c0-7.897-0.377-15.705-1.077-23.419
	L379.667,101.325l-6.883,43.56L311.216,88.94L207.25,81.25L92.575,260.821l69.961,69.961l-30.203,9.552L300.188,508.188z"/>
<path style="fill:#CDDDE8;" d="M294.5,373.643V348h-77v25.643c0,11.622-7.268,22.004-18.188,25.981l-118.397,43.12
	C126.701,485.688,188.273,512,256,512s129.299-26.312,175.085-69.256l-118.397-43.12C301.768,395.647,294.5,385.265,294.5,373.643z"
	/>
<path style="fill:#B6C9D3;" d="M431.085,442.744l-118.397-43.12c-10.92-3.977-18.188-14.359-18.188-25.981V348h-38.929v163.995
	c0.143,0,0.285,0.005,0.429,0.005C323.727,512,385.299,485.688,431.085,442.744z"/>
<rect x="200.78" y="298.19" style="fill:#E6ECEF;" width="110.43" height="58.28"/>
<rect x="255.57" y="298.19" style="fill:#CDDDE8;" width="55.645" height="58.28"/>
<rect x="92.58" y="150.39" style="fill:#E6ECEF;" width="58.28" height="110.43"/>
<rect x="356.71" y="150.39" style="fill:#CDDDE8;" width="58.28" height="110.43"/>
<rect x="132.33" y="101.33" style="fill:#FFFFFF;" width="247.33" height="239.01"/>
<rect x="255.57" y="101.33" style="fill:#E1E5EA;" width="124.09" height="239.01"/>
<path d="M380.848,290.475H360.25V182.423h20.598c16.903,0,30.606,13.703,30.606,30.606v46.84
	C411.454,276.772,397.751,290.475,380.848,290.475z"/>
<g>
	<rect x="193.22" y="256" style="fill:#FE6A16;" width="17.519" height="57.33"/>
	<rect x="219.5" y="276.47" style="fill:#FE6A16;" width="17.519" height="36.864"/>
	<rect x="248.34" y="256" style="fill:#FE6A16;" width="17.519" height="57.33"/>
</g>
<g>
	<rect x="255.57" y="256" style="fill:#E55710;" width="10.283" height="57.33"/>
	<rect x="274.61" y="276.47" style="fill:#E55710;" width="17.519" height="36.864"/>
	<rect x="301.26" y="264.33" style="fill:#E55710;" width="17.519" height="49"/>
</g>
<circle style="fill:#333940;" cx="191.67" cy="213.88" r="24"/>
<circle cx="320.33" cy="213.88" r="24"/>
<path style="fill:#333940;" d="M260.907,61.5h-9.815c-35.405,0-67.281,15.389-89.3,39.825h42.166
	C217.797,93.18,233.907,88.5,251.092,88.5h9.815c51.397,0,93.212,41.814,93.212,93.212v152.455H262v27h119.119V181.712
	C381.119,115.427,327.192,61.5,260.907,61.5z"/>
<path d="M260.907,61.5h-5.336v27h5.336c51.397,0,93.212,41.814,93.212,93.212v152.455H262v27h119.119V181.712
	C381.119,115.427,327.192,61.5,260.907,61.5z"/>
<path style="fill:#B5FB4A;" d="M279.333,373.667h-20.667C244.491,373.667,233,362.175,233,348l0,0
	c0-14.175,11.491-25.667,25.667-25.667h20.667C293.509,322.333,305,333.825,305,348l0,0
	C305,362.175,293.509,373.667,279.333,373.667z"/>
<path style="fill:#77DD00;" d="M279.333,322.333h-20.667c-1.048,0-2.08,0.07-3.095,0.192v50.949
	c1.016,0.123,2.047,0.192,3.095,0.192h20.667C293.509,373.667,305,362.175,305,348l0,0C305,333.825,293.509,322.333,279.333,322.333
	z"/>
<g>
</g>
<g>
</g>
<g>
</g>
<g>
</g>
<g>
</g>
<g>
</g>
<g>
</g>
<g>
</g>
<g>
</g>
<g>
</g>
<g>
</g>
<g>
</g>
<g>
</g>
<g>
</g>
<g>
</g>
</svg>
