<?xml version="1.0" encoding="iso-8859-1"?>
<!-- Generator: Adobe Illustrator 19.0.0, SVG Export Plug-In . SVG Version: 6.00 Build 0)  -->
<svg version="1.1" id="Capa_1" xmlns="http://www.w3.org/2000/svg" xmlns:xlink="http://www.w3.org/1999/xlink" x="0px" y="0px"
	 viewBox="0 0 512 512" style="enable-background:new 0 0 512 512;" xml:space="preserve">
<circle style="fill:#CDDF63;" cx="256" cy="256" r="256"/>
<path style="fill:#A3CE4C;" d="M394.42,116.517c-36.027-36.027-85.454-57.781-139.491-57.781
	C145.982,58.735,57.664,147.054,57.664,256c0,54.473,22.079,103.788,57.776,139.486l115.271,115.271
	C239.031,511.573,247.466,512,256,512c141.385,0,256-114.615,256-256c0-7.732-0.363-15.38-1.034-22.938L394.42,116.517z"/>
<circle style="fill:#4AB6BF;" cx="254.933" cy="256" r="197.268"/>
<path style="fill:#3E99A1;" d="M254.93,58.735v394.53c108.946,0,197.265-88.319,197.265-197.265S363.876,58.735,254.93,58.735z"/>
<circle style="fill:#ACEAF9;" cx="254.933" cy="256" r="159.461"/>
<path style="fill:#69C4D2;" d="M414.387,256c0-88.066-71.391-159.458-159.458-159.458v318.917
	C342.996,415.458,414.387,344.066,414.387,256z"/>
<g>
	<path style="fill:#30767A;" d="M161.307,245.122c4.092,0,7.899,0.676,11.42,2.026c3.519,1.351,6.548,3.254,9.087,5.71
		c2.536,2.456,4.522,5.404,5.955,8.841c1.431,3.439,2.149,7.245,2.149,11.42c0,4.421-0.798,8.433-2.394,12.035
		c-1.596,3.602-3.828,6.693-6.693,9.271c-2.866,2.579-6.264,4.583-10.193,6.017c-3.93,1.431-8.187,2.149-12.771,2.149
		c-6.386,0-12.095-1.351-17.131-4.053c-5.034-2.701-8.862-6.386-11.481-11.051l9.455-9.824c2.291,3.193,5.159,5.732,8.596,7.614
		c3.439,1.883,7,2.825,10.684,2.825c4.42,0,8.044-1.332,10.868-3.991c2.825-2.66,4.236-6.201,4.236-10.623
		c0-4.255-1.332-7.694-3.99-10.315c-2.662-2.619-6.038-3.93-10.131-3.93c-2.701,0-5.219,0.614-7.553,1.842
		c-2.333,1.228-4.196,2.907-5.587,5.035h-14.368c0-0.245,0.163-1.167,0.491-2.764c0.326-1.596,0.737-3.641,1.229-6.14
		c0.491-2.497,1.022-5.28,1.596-8.351c0.571-3.07,1.185-6.201,1.841-9.394c1.474-7.531,3.111-15.964,4.912-25.297h42.98v14.981
		h-31.069l-3.561,19.525c0.982-1.063,2.435-1.922,4.36-2.579C156.168,245.451,158.522,245.122,161.307,245.122z"/>
	<path style="fill:#30767A;" d="M277.893,257.018c0,24.667-15.292,44.617-37.697,44.617c-23.36,0-37.696-20.853-37.696-44.617
		c0-25.015,15.514-44.764,37.696-44.764C261.917,212.254,277.893,231.676,277.893,257.018z M261.4,257.018
		c0-14.924-7.03-29.745-21.204-29.745c-14.466,0-21.499,14.537-21.499,29.745c0,15.172,7.012,29.598,21.499,29.598
		C254.114,286.616,261.4,272.501,261.4,257.018z"/>
	<path style="fill:#30767A;" d="M315.666,246.183c-12.115,0-21.189-8.995-21.189-19.518c0-10.794,9.421-19.391,21.189-19.391
		c11.384,0,21.188,8.279,21.188,19.391C336.853,237.341,327.567,246.183,315.666,246.183z M301.669,293.696l69.599-86.164
		l7.833,6.934l-69.599,86.164L301.669,293.696z M315.666,237.58c4.474,0,9.118-4.497,9.118-10.915
		c0-5.627-3.797-10.787-9.118-10.787c-4.465,0-9.117,4.531-9.117,10.787C306.549,232.4,310.424,237.58,315.666,237.58z
		 M365.234,301.015c-11.611,0-21.188-8.426-21.188-19.391c0-10.456,9.016-19.519,21.188-19.519c11.187,0,21.189,7.984,21.189,19.519
		C386.422,293.443,376.048,301.015,365.234,301.015z M365.234,292.412c4.448,0,9.117-4.492,9.117-10.787
		c0-5.419-3.746-10.915-9.117-10.915c-4.46,0-9.117,4.483-9.117,10.915C356.117,287.254,359.91,292.412,365.234,292.412z"/>
</g>
<g>
</g>
<g>
</g>
<g>
</g>
<g>
</g>
<g>
</g>
<g>
</g>
<g>
</g>
<g>
</g>
<g>
</g>
<g>
</g>
<g>
</g>
<g>
</g>
<g>
</g>
<g>
</g>
<g>
</g>
</svg>
