<svg id="Capa_1" enable-background="new 0 0 512 512" height="512" viewBox="0 0 512 512" width="512" xmlns="http://www.w3.org/2000/svg"><g><g><g><g><g><g><g><g><g><circle cx="256" cy="256" fill="#ffce00" r="256"/></g></g></g></g></g></g></g></g><g fill="#ffa300"><path d="m126.41 328.712-30 88.63 83.005 83.005c24.182 7.572 49.907 11.653 76.585 11.653 16.762 0 33.148-1.611 49.011-4.687z"/><path d="m326.96 124.658 180.353 180.353c3.076-15.863 4.687-32.249 4.687-49.011 0-26.678-4.081-52.403-11.653-76.585l-84.757-84.757z"/><path d="m506.399 309.509-196.925-196.925-11.534 17.723-25.121-25.121-12.065 48.717-24.344-24.344-8.232 8.237-43.138-43.138-65.667 18.222-22.963 70.408 75.965 75.965-77.094 13.593 126.41 126.41-9.173 7.863 98.872 98.872c97.547-21.516 174.209-98.669 195.009-196.482z"/></g><g><path d="m307.033 366.384c0-.014.008-.026.02-.031 13.858-6.194 23.544-20.1 23.544-36.235v-91.825c0-8.866-6.906-16.409-15.767-16.703-9.288-.308-16.89 7.126-16.89 16.319v48.069c-.012.013-.021.022-.033.036l-4.69.326c-21.653 1.505-39.062 18.105-42.206 39.037l-10.242.089c2.989-24.736 22.256-44.851 46.992-48.715.011-.013.018-.021.029-.034v-39.377c0-.393.01-.784.031-1.173.521-9.875 8.648-21.042 19.211-22.658.027-.004 6.392 0 6.392 0v-90.571c0-8.589-6.963-15.552-15.552-15.552-8.589 0-15.552 6.963-15.552 15.552v96.561h-5.898v-104.15c0-8.433-6.558-15.615-14.985-15.915-8.848-.315-16.119 6.765-16.119 15.542v111.612h-4.893v-86.963c0-8.086-6.555-14.64-14.64-14.64-8.086 0-14.64 6.555-14.64 14.64v95.824h-4.893v-64.551c0-6.964-5.699-12.879-12.662-12.748-6.753.127-12.187 5.64-12.187 12.423v63.397 62.368 31.645h.193c1.378 15.59 10.48 28.958 23.454 36.256.011.006.017.017.017.03v26.394c0 12.1 9.809 21.913 21.91 21.913h58.146c12.1 0 21.909-9.816 21.91-21.916 0-20.403 0-24.276 0-24.276z" fill="#e09380"/></g><g fill="#cc6d58"><path d="m287.762 276.749c.011-.013.018-.021.029-.034v-39.375c0-.393.01-.784.031-1.173.521-9.875 8.648-21.042 19.211-22.658.027-.004 6.393 0 6.393 0v-90.571c0-8.589-6.963-15.552-15.552-15.552-8.589 0-15.552 6.963-15.552 15.552v96.562h-5.898v-104.15c0-8.433-6.558-15.615-14.985-15.915-1.862-.066-3.647.212-5.317.748v193.087c8.28-8.599 19.277-14.59 31.64-16.521z"/><path d="m314.831 221.589c-9.288-.308-16.89 7.126-16.89 16.319v48.069c-.012.013-.021.022-.033.035l-4.69.326c-16.072 1.117-29.8 10.555-37.097 23.903v102.334h29.003c12.1 0 21.909-9.816 21.909-21.916 0-20.403 0-24.276 0-24.276 0-.014.008-.026.02-.031 13.858-6.194 23.544-20.101 23.544-36.235v-91.825c0-8.865-6.906-16.408-15.766-16.703z"/></g><g><g><g><path d="m126.41 183.288h-30v-88.63h88.63v30h-58.63z" fill="#606aea"/></g><g><path d="m415.59 183.288h-30v-58.63h-58.63v-30h88.63z" fill="#4855b7"/></g></g><g><g><path d="m415.59 417.342h-88.63v-30h58.63v-58.63h30z" fill="#4855b7"/></g><g><path d="m185.04 417.342h-88.63v-88.63h30v58.63h58.63z" fill="#606aea"/></g></g></g><g><path d="m95.281 242.846h317.646v30h-317.646z" fill="#606aea"/></g><g><path d="m256.121 242.846h156.807v30h-156.807z" fill="#4855b7"/></g></g></svg>